<?xml version="1.0" encoding="UTF-8"?>
<svg width="427px" height="366px" viewBox="0 0 427 366" version="1.1" xmlns="http://www.w3.org/2000/svg" xmlns:xlink="http://www.w3.org/1999/xlink">
    <title>Artboard Copy 8</title>
    <g id="Artboard-Copy-8" stroke="none" stroke-width="1" fill="none" fill-rule="evenodd">
        <g id="Group">
            <path d="M397,0.5 L191,0.5 C187.962434,0.5 185.5,2.96243388 185.5,6 L185.5,250 C185.5,253.037566 187.962434,255.5 191,255.5 L397,255.5 C400.037566,255.5 402.5,253.037566 402.5,250 L402.5,6 C402.5,2.96243388 400.037566,0.5 397,0.5 Z M191,1.5 L397,1.5 C399.485281,1.5 401.5,3.51471863 401.5,6 L401.5,250 C401.5,252.485281 399.485281,254.5 397,254.5 L191,254.5 C188.514719,254.5 186.5,252.485281 186.5,250 L186.5,6 C186.5,3.51471863 188.514719,1.5 191,1.5 Z" id="BG" fill="#979797" fill-rule="nonzero"></path>
            <path d="M286.78129,70 L289.97598,65.4755169 L280.704172,58.9880305 L290,52.5005441 L286.80531,48 L271,58.9880305 L286.78129,70 Z M301.173267,77 L315,38.8890201 L309.826733,37 L296,75.1109799 L301.173267,77 Z M323.21871,70 L339,58.9880305 L323.19469,48 L320,52.5005441 L329.295828,58.9880305 L320.02402,65.4755169 L323.21871,70 Z" id="&lt;/&gt;" fill="#979797" fill-rule="nonzero"></path>
            <g id="data-editor-3" transform="translate(0.000000, 147.000000)">
                <g id="data-editor-2">
                    <g id="data-editor">
                        <g id="data-editor-laptop-screen" transform="translate(213.500000, 109.500000) scale(-1, 1) translate(-213.500000, -109.500000) translate(-0.000000, 0.000000)" fill-rule="nonzero">
                            <g id="data-editor-laptop">
                                <path d="M418.101242,0.507135265 L359.753866,8.83610159 C268.312785,21.8630804 219.083058,28.7309287 212.117914,29.4310188 L211.683698,29.4712375 C205.56108,29.9697185 201.740909,33.7428856 200.28692,40.6752373 L166.743739,208.377819 L204.68666,209.411144 C324.703615,212.635608 385.446584,213.806163 388.272489,212.931616 C391.547642,211.91804 392.669452,210.243231 393.539208,205.921191 L394.372019,201.414425 C394.636363,199.917332 395.167962,196.806044 395.980056,192.005269 L417.15897,65.856606 C421.781474,38.407502 424.579486,21.9817877 425.65787,16.0261608 L425.946571,14.4656288 C427.743704,5.07237135 425.116773,0.288337822 418.101242,0.507135265 Z M424.723865,15.5727189 C423.713009,21.125459 421.038395,36.8103254 416.596667,63.1743807 L394.089048,197.170489 C393.673135,199.608928 393.404349,201.160292 393.278068,201.8508 L392.678751,205.102996 C391.848839,209.573118 390.965834,211.051302 387.976848,211.976317 L387.867734,212.002743 C383.90392,212.783366 320.802219,211.540296 199.925824,208.282383 L167.956,207.41 L201.191086,41.2498377 C202.479084,34.6144493 205.876412,31.0695258 211.447197,30.4971636 L212.200957,30.4275722 C220.553917,29.5887181 289.16853,19.9532258 418.187615,1.50185624 C424.300351,1.31424176 426.589253,5.31862008 425.03543,13.8963193 L424.723865,15.5727189 Z" id="data-editor-laptop-frame" fill="#727272"></path>
                                <path d="M424.723865,15.5727189 C423.713009,21.125459 421.038395,36.8103254 416.596667,63.1743807 L394.089048,197.170489 C393.673135,199.608928 393.404349,201.160292 393.278068,201.8508 L392.678751,205.102996 C391.848839,209.573118 390.965834,211.051302 387.976848,211.976317 L387.867734,212.002743 C383.90392,212.783366 320.802219,211.540296 199.925824,208.282383 L167.956,207.41 L201.191086,41.2498377 C202.479084,34.6144493 205.876412,31.0695258 211.447197,30.4971636 L212.200957,30.4275722 C220.553917,29.5887181 289.16853,19.9532258 418.187615,1.50185624 C424.300351,1.31424176 426.589253,5.31862008 425.03543,13.8963193 L424.723865,15.5727189 Z" id="Path" fill="#FFFFFF"></path>
                                <path d="M385.917498,196.2598 L417.157036,13.2544207 L205.916873,40.4135479 L174.83316,197.83805 L385.917498,196.2598 Z M415.943,14.418 L385.072,195.265 L176.051,196.828 L206.758,41.313 L415.943,14.418 Z" id="data-editor-laptop-screen-outline" fill="#727272"></path>
                                <polygon id="Path" fill="#FFFFFF" points="415.943 14.418 385.072 195.265 176.051 196.828 206.758 41.313"></polygon>
                                <path d="M395.84503,207.46837 L0.5,207.46837 L0.5,214.645056 L0.822626153,214.767469 C7.34904626,217.243753 13.4861988,218.483612 19.2335013,218.483612 L380.593901,218.480481 C382.487784,218.476868 383.618135,218.44864 384.953399,218.355062 C388.914603,218.077453 391.654199,217.294445 393.016278,215.680881 C394.746901,213.630728 395.681227,211.061562 395.821199,207.99114 L395.84503,207.46837 Z M394.788,208.468 L394.765228,208.748595 C394.522062,211.248372 393.683886,213.339735 392.252135,215.035835 C391.163759,216.325161 388.765948,217.04542 385.275771,217.327915 L384.883489,217.357509 C383.668989,217.442623 382.621714,217.472647 380.977427,217.479343 L279.388505,217.500018 L19.2335384,217.483612 L18.6075104,217.478608 C13.3769249,217.39521 7.80420541,216.269271 1.88885994,214.098068 L1.5,213.953 L1.5,208.468 L394.788,208.468 Z" id="data-editor-laptop-keyboard" fill="#727272"></path>
                                <path d="M394.788,208.468 L394.765228,208.748595 C394.522062,211.248372 393.683886,213.339735 392.252135,215.035835 C391.163759,216.325161 388.765948,217.04542 385.275771,217.327915 L384.883489,217.357509 C383.668989,217.442623 382.621714,217.472647 380.977427,217.479343 L279.388505,217.500018 L19.2335384,217.483612 L18.6075104,217.478608 C13.3769249,217.39521 7.80420541,216.269271 1.88885994,214.098068 L1.5,213.953 L1.5,208.468 L394.788,208.468 Z" id="Path" fill="#FFFFFF"></path>
                            </g>
                            <polygon id="data-editor-field" fill="#727272" points="258.431924 68.0891847 395.841397 53.0616367 371.725389 195.685152 370.739385 195.51843 394.635 54.199 259.283 69.001 236.254007 197.036277 235.269802 196.859246"></polygon>
                        </g>
                        <path d="M52.3572491,80.5332247 L51.4539106,74.1260274 L62.6134918,75.0521512 L63.5654679,81.4377868 L52.3572491,80.5332247 Z M74.2233369,82.6366828 L73.2547137,76.5695692 L78.7236989,77.0646737 L79.7142109,83.1010529 L74.2233369,82.6366828 Z M91.2776959,83.5247105 L90.2108939,77.3987566 L112.467033,79.5297057 L113.626571,85.6515018 L91.2776959,83.5247105 Z M124.532945,86.9220665 L123.315817,80.7287825 L134.973361,82.0346928 L136.234811,88.2043964 L124.532945,86.9220665 Z M53.9823317,89.5349826 L53.0687849,83.0376423 L74.6688192,84.7478513 L75.6770251,91.2418251 L53.9823317,89.5349826 Z M87.2409715,92.3603724 L86.1737081,86.3856607 L130.941876,89.6275763 L132.197626,95.6349415 L87.2409715,92.3603724 Z M142.364321,96.376294 L141.079434,90.7097766 L158.301367,91.8033417 L159.650489,97.4557734 L142.364321,96.376294 Z M54.8015058,98.2120049 L53.8762221,91.9531002 L70.6420594,93.1175414 L71.6398394,99.3651287 L54.8015058,98.2120049 Z M83.1814287,100.64007 L82.1365223,94.536914 L104.41464,95.9572506 L105.5522,102.057072 L83.1814287,100.64007 Z M116.44649,103.026253 L115.241446,97.1867586 L126.910951,98.0582205 L128.16044,103.876157 L116.44649,103.026253 Z M56.4404495,108.0427 L55.4910964,101.688837 L89.1159545,103.754238 L90.2108939,110.126049 L56.4404495,108.0427 Z M101.051023,110.037544 L99.9001397,103.656055 L117.251201,104.85067 L118.471194,111.21936 L101.051023,110.037544 Z M129.401007,112.032254 L128.16044,106.355335 L145.425417,107.491272 L146.731494,113.155309 L129.401007,112.032254 Z M58.0642743,116.423471 L57.1059707,109.810918 L73.8402814,110.71305 L74.869588,117.313782 L58.0642743,116.423471 Z M85.6390941,118.103194 L84.5588338,111.706165 L107.607331,112.951901 L108.781948,119.347031 L85.6390941,118.103194 Z M119.685307,119.584759 L118.471194,113.692249 L141.391356,114.691377 L142.694309,120.58009 L119.685307,119.584759 Z M59.6883653,125.62907 L58.720845,119.562725 L81.0746088,120.31288 L82.1365223,126.377897 L59.6883653,125.62907 Z M92.9545781,126.910199 L91.8257682,120.782333 L103.569972,121.405246 L104.744763,127.512259 L92.9545781,126.910199 Z M115.634475,127.82372 L114.434008,121.884553 L137.367574,122.881976 L138.657123,128.817812 L115.634475,127.82372 Z M60.5119047,134.636532 L59.5282821,128.499495 L81.8667182,129.235946 L82.9439595,135.371789 L60.5119047,134.636532 Z M94.5634393,136.130329 L93.4406425,129.809939 L116.449296,130.440978 L117.663757,136.759269 L94.5634393,136.130329 Z M129.405683,136.841135 L128.16044,131.14711 L139.792044,131.471443 L141.079434,137.144274 L129.405683,136.841135 Z M62.1530968,143.454017 L61.1431564,137.453733 L95.5164506,138.59049 L96.6703911,144.609889 L62.1530968,143.454017 Z M108.346198,145.587074 L107.167074,139.052232 L118.863023,139.358285 L120.086068,145.870199 L108.346198,145.587074 Z M131.02718,146.019971 L129.775314,140.265377 L152.660722,140.757661 L153.998429,146.508498 L131.02718,146.019971 Z M63.0077198,152.918841 L61.9505936,146.40011 L73.7647733,146.669144 L74.869588,153.167767 L63.0077198,152.918841 Z M86.511551,153.412079 L85.3662709,146.850971 L91.4655563,147.011223 L92.6332053,153.540545 L86.511551,153.412079 Z M104.30124,153.785404 L103.129888,148.013982 L120.462905,148.389954 L121.700943,154.150545 L104.30124,153.785404 Z M132.64999,154.380315 L131.390189,148.564239 L159.898428,149.159503 L161.265363,154.980822 L132.64999,154.380315 Z" id="data-editor-text" fill="#6D7278"></path>
                        <path d="M131.332887,148.66894 L159.895806,149.254491 L161.265363,154.980822 L132.595104,154.390114 L131.332887,148.66894 Z M103.018382,148.127661 L120.384644,148.497499 L121.625056,154.164092 L104.19198,153.80491 L103.018382,148.127661 Z M85.2206929,146.983628 L91.331677,147.141264 L92.5015656,153.564046 L86.3681697,153.437677 L85.2206929,146.983628 Z M61.7601032,146.540123 L73.5969431,146.804767 L74.7038768,153.197351 L62.8192571,152.952487 L61.7601032,146.540123 Z M129.714915,140.505492 L152.644218,140.989743 L153.98449,146.646743 L130.969181,146.166187 L129.714915,140.505492 Z M107.063311,139.312143 L118.781693,139.613201 L120.007085,146.018859 L108.244697,145.740354 L107.063311,139.312143 Z M60.9511173,137.739726 L95.3903411,138.857935 L96.5464949,144.779114 L61.9629949,143.642103 L60.9511173,137.739726 Z" id="data-editor-text-tablet" fill="#6D7278"></path>
                        <path d="M53.5593447,89.4832198 L52.6410615,83.0438356 L74.3530871,84.7387896 L75.3665204,91.1748372 L53.5593447,89.4832198 Z M86.9904232,92.2834071 L85.9176263,86.3619898 L130.917907,89.5749876 L132.180168,95.5287671 L86.9904232,92.2834071 Z" id="data-editor-text-phone" fill="#6D7278"></path>
                    </g>
                </g>
            </g>
        </g>
    </g>
</svg>