<svg xmlns="http://www.w3.org/2000/svg" width="336" height="367" viewBox="0 0 336 367">
  <g fill="#979797" transform="translate(18.5 8)">
    <path d="M282.467059,0 L16.5329412,0 C7.40204989,0 0,7.40076 0,16.5300601 L0,334.46994 C0,343.59924 7.40204989,351 16.5329412,351 L282.467059,351 C291.59795,351 299,343.59924 299,334.46994 L299,16.5300601 C299,7.40076 291.59795,0 282.467059,0 Z M16.5329412,0.703406814 L282.467059,0.703406814 C291.209402,0.703406814 298.296471,7.78924086 298.296471,16.5300601 L298.296471,334.46994 C298.296471,343.210759 291.209402,350.296593 282.467059,350.296593 L16.5329412,350.296593 C7.79059846,350.296593 0.703529412,343.210759 0.703529412,334.46994 L0.703529412,16.5300601 C0.703529412,7.78924086 7.79059846,0.703406814 16.5329412,0.703406814 Z"/>
    <path d="M241 62L37 62 37 83 241 83 241 62zM240.294118 62.7L240.294118 82.3 37.7058824 82.3 37.7058824 62.7 240.294118 62.7zM90 134L37 134 37 155 90 155 90 134zM89.2933333 134.7L89.2933333 154.3 37.7066667 154.3 37.7066667 134.7 89.2933333 134.7zM241 134L104 134 104 155 241 155 241 134zM240.297436 134.7L240.297436 154.3 104.702564 154.3 104.702564 134.7 240.297436 134.7z"/>
    <polygon points="111 43 38 43 38 54 111 54"/>
    <polygon points="67 115 37 115 37 126 67 126"/>
    <polygon points="194 115 104 115 104 126 194 126"/>
    <path d="M241,206 L37,206 L37,227 L241,227 L241,206 Z M240.294118,206.7 L240.294118,226.3 L37.7058824,226.3 L37.7058824,206.7 L240.294118,206.7 Z"/>
    <polygon points="187 188 38 188 38 199 187 199"/>
    <path d="M208,277 L37,277 L37,298 L208,298 L208,277 Z M207.296296,277.7 L207.296296,297.3 L37.7037037,297.3 L37.7037037,277.7 L207.296296,277.7 Z"/>
    <polygon points="111 260 38 260 38 271 111 271"/>
  </g>
</svg>
